<svg xmlns="http://www.w3.org/2000/svg" width="100%" viewBox="0 0 1512 181" fill="none">
        <path d="M-544 -1L-401.414 181C-368.778 172.503 -305.376 171.816 -251.873 173.378C-198.37 174.94 -142.192 177.876 -91.6318 174.065C-10.8422 168.004 27.4125 146.637 113.017 144.138C155.017 142.888 195.68 146.762 235.539 149.636C275.399 152.51 323.017 154.197 357.526 149.386C405.946 142.638 405.411 126.081 461.055 121.833C509.207 118.209 547.729 126.269 591.334 128.268C640.29 130.517 676.404 125.706 707.169 118.084C735.793 111.024 766.825 102.589 812.837 102.215C854.57 101.84 888.812 108.525 911.818 115.335C935.092 122.145 954.888 129.893 991.27 134.016C1043.97 139.952 1110.31 135.953 1165.69 131.017C1220.8 126.081 1279.65 120.083 1339.04 122.52C1428.92 126.269 1486.71 148.136 1578.47 147.137C1624.48 146.637 1662.47 140.264 1702.59 135.766C1742.72 131.267 1798.63 128.83 1831.27 135.266V-1H-544Z" fill="#2384E9"/>
    </svg>