<svg width="491" height="488" viewBox="0 0 491 488" fill="none" xmlns="http://www.w3.org/2000/svg">
<g clip-path="url(#clip0_51_389)">
<path opacity="0.6" d="M91.4739 264.628L50.6336 241.083L83.1392 222.33L123.979 245.875L91.4739 264.628Z" fill="#041860"/>
<path d="M93.1409 273.588L35.4227 240.249L81.6806 213.578L139.399 246.917L93.1409 273.588ZM38.1315 240.249L93.1409 271.921L136.482 246.917L81.4722 215.245L38.1315 240.249Z" fill="white"/>
<path d="M91.4739 210.244L50.6336 186.699L83.1392 167.945L123.979 191.491L91.4739 210.244Z" fill="url(#paint0_linear_51_389)"/>
<path d="M123.979 216.704V191.491L91.4739 210.244V235.457L123.979 216.704Z" fill="url(#paint1_linear_51_389)"/>
<path d="M50.6336 186.698V211.911L91.4739 235.457V210.244L50.6336 186.698Z" fill="url(#paint2_linear_51_389)"/>
<path d="M75.8463 180.656L58.1349 190.866V196.492L63.3441 199.409V193.991L81.0555 183.781L75.8463 180.656Z" fill="white"/>
<path d="M86.8898 187.324L69.3868 197.325V202.951L74.596 205.869V200.451L92.3074 190.241L86.8898 187.324Z" fill="white"/>
<path d="M98.1417 193.783L80.6387 203.993V209.411L85.848 212.328V206.91L103.559 196.7L98.1417 193.783Z" fill="white"/>
<path d="M75.8463 180.656V182.948L79.1802 184.823L81.0555 183.781L75.8463 180.656Z" fill="#A9EBFF"/>
<path d="M60.0102 195.242L58.1349 196.492L63.3441 199.409V197.117L60.0102 195.242Z" fill="#A9EBFF"/>
<path d="M75.8463 180.656L58.1349 190.866V196.492L60.0102 195.242V192.116L75.8463 182.948V180.656Z" fill="url(#paint3_linear_51_389)"/>
<path d="M86.8898 187.324V189.407L90.4321 191.283L92.3074 190.241L86.8898 187.324Z" fill="#A9EBFF"/>
<path d="M71.2621 201.701L69.3868 202.951L74.596 205.868V203.576L71.2621 201.701Z" fill="#A9EBFF"/>
<path d="M86.8898 187.324L69.3868 197.325V202.951L71.2621 201.701V198.576L87.0982 189.407L86.8898 187.324Z" fill="url(#paint4_linear_51_389)"/>
<path d="M98.1417 193.783V195.867L101.684 197.742L103.559 196.7L98.1417 193.783Z" fill="#A9EBFF"/>
<path d="M82.514 208.161L80.6387 209.411L85.848 212.328V210.036L82.514 208.161Z" fill="#A9EBFF"/>
<path d="M98.1417 193.783L80.6387 203.993V209.411L82.514 208.161V205.035L98.1417 195.867V193.783Z" fill="url(#paint5_linear_51_389)"/>
<path d="M303.385 488C255.46 488 207.744 477.582 171.279 456.536C135.857 436.116 116.27 408.82 116.27 379.856C116.27 350.893 135.857 323.597 171.279 303.177C244.208 261.086 362.77 261.086 435.491 303.177C470.914 323.597 490.5 350.893 490.5 379.856C490.5 408.82 470.914 436.116 435.491 456.536C399.026 477.582 351.102 488 303.385 488ZM303.385 272.963C255.877 272.963 208.161 283.382 171.904 304.427C136.898 324.639 117.728 351.518 117.728 379.856C117.728 408.403 136.898 435.074 171.904 455.286C244.417 497.168 362.354 497.168 434.866 455.286C469.872 435.074 489.042 408.195 489.042 379.856C489.042 351.31 469.872 324.639 434.866 304.427C398.61 283.382 350.893 272.963 303.385 272.963Z" fill="white"/>
<path opacity="0.5" d="M303.385 456.953C377.151 456.953 436.95 422.436 436.95 379.857C436.95 337.277 377.151 302.76 303.385 302.76C229.62 302.76 169.821 337.277 169.821 379.857C169.821 422.436 229.62 456.953 303.385 456.953Z" fill="#13247A"/>
<path d="M388.4 80.222L251.71 1.04182C249.418 -0.208395 247.542 -0.416764 245.875 0.416711L236.499 5.8343L242.541 9.58494V330.056C242.541 336.724 246.5 344.434 251.501 347.351L386.733 425.489L384.857 432.365L394.234 426.948C396.109 425.906 397.36 423.406 397.36 419.655V97.3083C397.36 90.6405 393.4 82.9308 388.4 80.222Z" fill="url(#paint6_linear_51_389)"/>
<path d="M379.023 431.949L242.125 352.977C237.124 350.06 233.165 342.35 233.165 335.682V13.3356C233.165 6.66779 237.124 3.75063 242.125 6.45942L379.023 85.4312C384.024 88.3484 387.983 96.0581 387.983 102.726V425.073C387.983 431.74 383.816 434.866 379.023 431.949Z" fill="url(#paint7_linear_51_389)"/>
<path d="M387.983 425.281L233.165 335.891V13.1272L387.983 102.726V425.281Z" fill="#0F65B2"/>
<path opacity="0.4" d="M363.187 431.532L225.038 351.727C219.829 348.809 216.704 343.184 216.704 337.141V33.7557C216.704 29.5883 221.288 26.8795 225.038 28.9632L363.187 108.768C368.396 111.686 371.522 117.312 371.522 123.354V426.948C371.522 431.115 366.938 433.616 363.187 431.532Z" fill="white"/>
<path d="M365.896 432.991C364.854 432.991 363.812 432.782 362.77 432.157L224.622 352.352C219.204 349.226 215.87 343.392 215.87 337.349V33.7557C215.87 31.4637 216.912 29.5884 218.996 28.5465C220.871 27.5047 223.163 27.5047 225.038 28.5465L363.395 108.352C368.813 111.477 372.147 117.312 372.147 123.354V426.948C372.147 429.24 371.105 431.115 369.021 432.157C367.98 432.574 366.938 432.991 365.896 432.991ZM222.121 28.7549C221.288 28.7549 220.454 28.9633 219.621 29.38C218.162 30.2135 217.12 31.8804 217.12 33.5474V337.141C217.12 342.975 220.246 348.184 225.247 351.102L363.395 430.907C364.854 431.74 366.729 431.74 368.396 430.907C369.855 430.073 370.897 428.406 370.897 426.74V123.354C370.897 117.52 367.771 112.311 362.77 109.394L224.622 29.5884C223.788 28.9633 222.955 28.7549 222.121 28.7549Z" fill="white"/>
<path d="M320.68 59.5935L300.26 47.7165C299.635 47.2997 299.009 46.2579 299.009 45.216C299.009 44.3826 299.635 43.9658 300.26 44.1742L320.68 56.0512C321.305 56.468 321.93 57.5098 321.93 58.5516C321.93 59.5935 321.513 60.0102 320.68 59.5935Z" fill="#0063AD"/>
<path opacity="0.2" d="M329.223 242.75C331.932 244.417 334.224 242.75 334.224 238.999V126.897C334.224 123.146 331.932 118.77 329.223 117.103L217.12 52.3007C216.912 53.5509 216.704 55.0095 216.704 56.2597V177.53L329.223 242.75Z" fill="#041860"/>
<path d="M245.042 201.284V203.993C242.75 202.951 239.624 202.326 236.082 202.743C223.371 203.576 208.577 213.786 203.16 225.247C201.701 228.372 200.868 231.289 201.076 233.998L198.576 233.165L201.284 237.332C203.576 240.874 208.161 242.958 214.62 242.333C227.33 241.5 242.125 231.289 247.542 219.829C250.251 214.203 250.251 209.202 247.959 205.66L245.042 201.284Z" fill="#F4A856"/>
<path d="M244.625 215.453C238.999 226.914 224.413 236.915 211.703 237.957C198.992 238.791 193.158 230.456 198.784 218.996C204.41 207.535 218.996 197.534 231.706 196.492C244.417 195.45 250.043 203.993 244.625 215.453Z" fill="#FCCC6B"/>
<path d="M244.625 215.453C238.999 226.914 224.413 236.915 211.703 237.957C198.992 238.791 193.158 230.456 198.784 218.996C204.41 207.535 218.996 197.534 231.706 196.492C244.417 195.45 250.043 203.993 244.625 215.453Z" fill="url(#paint8_radial_51_389)"/>
<path d="M229.623 228.581C224.622 232.123 218.579 234.415 213.161 234.832C207.952 235.248 203.785 233.79 201.701 230.664C199.617 227.539 199.617 223.163 201.909 218.579C206.494 208.994 218.996 200.451 229.831 199.617C235.04 199.201 239.208 200.659 241.291 203.785C243.375 206.91 243.375 211.286 241.083 215.87C238.791 220.663 234.623 225.038 229.623 228.581ZM213.995 206.077C208.994 209.411 204.827 213.786 202.535 218.579C200.243 223.163 200.243 227.33 202.118 230.248C204.202 233.165 207.952 234.623 213.161 234.207C223.788 233.373 236.082 225.038 240.666 215.453C242.958 210.869 242.958 206.702 241.083 203.785C238.999 200.868 235.248 199.409 230.039 199.826C224.83 200.451 218.996 202.743 213.995 206.077Z" fill="#F4A856"/>
<path d="M240.874 215.662C236.29 225.247 223.788 233.79 213.161 234.415C202.535 235.248 197.742 227.956 202.326 218.371C206.91 208.786 219.412 200.243 230.039 199.617C240.666 198.992 245.459 206.077 240.874 215.662Z" fill="url(#paint9_radial_51_389)"/>
<path d="M202.951 219.412C207.535 209.828 220.038 201.284 230.664 200.659C235.665 200.243 239.416 201.701 241.5 204.202C239.624 201.076 235.665 199.201 230.039 199.617C219.412 200.451 206.91 208.786 202.326 218.371C199.826 223.372 200.034 227.747 202.326 230.664C200.659 227.956 200.868 223.997 202.951 219.412Z" fill="#F4A856"/>
<path d="M244 214.62C238.374 226.08 223.788 236.082 211.078 237.124C205.035 237.541 200.451 235.874 198.159 232.748C200.451 236.499 205.035 238.582 211.703 238.166C224.413 237.332 239.207 227.122 244.625 215.662C247.542 209.619 247.334 204.618 244.625 201.076C246.709 204.202 246.709 208.994 244 214.62Z" fill="#FCE586"/>
<path d="M240.666 228.997C243.583 226.08 245.875 222.955 247.334 219.621C250.043 213.995 250.043 208.994 247.751 205.452L244.833 201.284C244.833 201.284 244.833 201.076 244.625 201.076L244.417 200.868C241.916 197.742 237.541 195.867 231.289 196.284C224.205 196.909 216.287 200.243 209.827 205.243L232.748 228.997H240.666Z" fill="#F4A856"/>
<path d="M314.637 126.48L151.901 32.5055C150.651 31.672 149.401 31.672 148.567 32.2971L146.067 33.7557C146.067 33.7557 146.692 33.7557 147.108 33.9641C146.9 34.5892 146.692 35.4227 146.692 36.4645V148.567C146.692 152.318 148.984 156.693 151.693 158.36L314.637 252.126C314.845 252.335 315.262 252.335 315.471 252.543V253.793L317.971 252.335C319.013 251.71 319.638 250.251 319.638 248.167V136.273C319.638 132.523 317.554 128.147 314.637 126.48Z" fill="white"/>
<path d="M312.345 253.376L149.609 159.61C146.9 157.944 144.608 153.568 144.608 149.817V37.7147C144.608 33.964 146.9 32.2971 149.609 33.964L312.345 127.938C315.054 129.605 317.346 133.981 317.346 137.732V249.834C317.346 253.377 315.054 255.043 312.345 253.376Z" fill="url(#paint10_linear_51_389)"/>
<path d="M263.795 133.773V117.728L267.129 119.604C267.754 120.02 268.379 120.437 268.796 120.854C269.213 121.271 269.629 121.687 270.046 122.313C270.463 122.729 270.671 123.354 270.88 123.979C271.088 124.605 271.088 125.438 271.088 126.063C271.088 127.938 270.463 128.772 269.004 128.147C269.838 128.772 270.463 129.605 270.88 130.439C271.296 131.272 271.505 132.314 271.505 133.564C271.505 135.023 271.088 136.065 270.463 136.482C269.838 136.898 268.796 136.69 267.546 136.065L263.795 133.773ZM266.295 125.646L267.129 126.063C267.962 126.48 268.379 126.688 268.588 126.48C268.796 126.272 269.004 125.646 269.004 124.813C269.004 124.396 269.004 123.979 268.796 123.563C268.796 123.146 268.588 122.938 268.379 122.729C268.171 122.521 267.962 122.313 267.754 122.104C267.546 121.896 267.129 121.687 266.712 121.479L266.295 121.271V125.646ZM266.295 133.148L267.129 133.773C267.962 134.19 268.379 134.398 268.796 133.981C269.004 133.773 269.213 133.148 269.213 132.314C269.213 131.272 269.004 130.647 268.796 130.022C268.379 129.397 267.962 128.772 267.129 128.355L266.295 127.938V133.148Z" fill="white"/>
<path d="M272.547 138.774L275.464 124.396L278.173 125.855L280.881 143.566L278.589 142.108L277.964 138.149L275.464 136.69L274.839 140.024L272.547 138.774ZM275.88 135.023L277.756 136.065L276.922 128.98L275.88 135.023Z" fill="white"/>
<path d="M282.131 144.191V128.147L283.798 129.189L287.132 140.232V131.272L289.216 132.523V148.567L287.549 147.525L284.215 136.065V145.65L282.131 144.191Z" fill="white"/>
<path d="M291.508 149.609V133.564L294.009 135.023V141.899L296.717 136.482L299.218 137.94L296.509 143.566L299.426 154.193L296.926 152.734L294.634 143.775L294.217 144.608V151.067L291.508 149.609Z" fill="white"/>
<path d="M189.407 159.402L158.569 141.482V137.315L189.407 155.235V159.402Z" fill="white"/>
<path d="M227.331 181.281L196.492 163.361V159.194L227.331 177.114V181.281Z" fill="white"/>
<path d="M265.462 203.16L234.415 185.24V181.073L265.462 198.992V203.16Z" fill="white"/>
<path d="M303.385 225.038L272.547 207.119V203.16L303.385 220.871V225.038Z" fill="white"/>
<path opacity="0.2" d="M312.345 127.938L149.609 33.964C146.9 32.2971 144.608 33.964 144.608 37.7147V149.817C144.608 150.442 144.608 151.276 144.816 151.901C153.568 145.65 188.574 126.271 255.877 163.361C280.256 176.905 300.885 175.03 317.346 166.278V137.523C317.346 133.773 315.054 129.397 312.345 127.938Z" fill="white"/>
<path opacity="0.2" d="M211.911 122.104C234.832 119.187 253.793 112.102 269.629 103.351L149.609 33.964C146.9 32.2971 144.608 33.964 144.608 37.7147V145.025C156.485 135.648 177.114 126.688 211.911 122.104Z" fill="white"/>
<path d="M249.001 393.4L247.542 395.692C246.292 393.4 244 391.317 240.874 389.441C229.831 382.982 212.12 382.982 201.076 389.233C197.95 390.9 195.867 392.984 194.408 395.276L192.741 393.192V398.193C192.533 402.36 195.242 406.736 200.868 410.07C211.911 416.529 229.623 416.529 240.666 410.278C246.084 407.153 249.001 402.985 249.001 398.818V393.4Z" fill="#F4A856"/>
<path d="M240.666 404.861C229.623 411.112 211.703 411.112 200.868 404.652C189.824 398.193 190.032 387.983 200.868 381.523C211.911 375.272 229.831 375.272 240.666 381.732C251.71 388.191 251.71 398.61 240.666 404.861Z" fill="#FCCC6B"/>
<path d="M240.666 404.861C229.623 411.112 211.703 411.112 200.868 404.652C189.824 398.193 190.032 387.983 200.868 381.523C211.911 375.272 229.831 375.272 240.666 381.732C251.71 388.191 251.71 398.61 240.666 404.861Z" fill="url(#paint11_radial_51_389)"/>
<path d="M220.871 407.153C214.62 407.153 208.577 405.694 203.785 402.985C199.201 400.277 196.7 396.734 196.7 392.984C196.7 389.233 199.201 385.691 203.785 383.19C213.161 377.773 228.164 377.981 237.541 383.399C242.125 386.108 244.625 389.65 244.625 393.401C244.625 397.151 242.125 400.693 237.541 403.194C232.956 405.903 226.914 407.153 220.871 407.153ZM220.663 379.857C214.62 379.857 208.786 381.107 204.202 383.816C199.826 386.316 197.325 389.65 197.325 393.192C197.325 396.734 199.617 400.068 203.993 402.777C213.161 408.195 227.956 408.195 237.332 402.985C241.708 400.485 244.208 397.151 244.208 393.609C244.208 390.067 241.916 386.733 237.541 384.024C232.748 381.107 226.705 379.857 220.663 379.857Z" fill="#F4A856"/>
<path d="M237.332 402.985C228.164 408.195 213.161 408.195 203.785 402.777C194.617 397.359 194.617 388.816 203.785 383.399C212.953 378.189 227.956 378.189 237.332 383.607C246.709 389.025 246.709 397.776 237.332 402.985Z" fill="url(#paint12_radial_51_389)"/>
<path d="M203.993 384.649C213.161 379.44 228.164 379.44 237.541 384.857C241.916 387.358 244.208 390.692 244.417 394.026C244.625 390.275 242.333 386.524 237.541 383.816C228.372 378.398 213.37 378.398 203.993 383.607C199.201 386.316 196.7 390.067 197.117 393.817C197.325 390.483 199.617 387.149 203.993 384.649Z" fill="#F4A856"/>
<path d="M240.666 403.819C229.623 410.07 211.703 410.07 200.868 403.611C195.658 400.485 192.95 396.526 192.741 392.567C192.533 396.943 195.242 401.318 200.868 404.652C211.911 411.112 229.623 411.112 240.666 404.861C246.5 401.527 249.209 397.151 249.001 392.775C248.584 396.734 245.875 400.693 240.666 403.819Z" fill="#FCE586"/>
<path d="M253.793 386.524L252.335 388.816C251.085 386.524 248.792 384.441 245.667 382.565C234.623 376.106 216.912 376.106 205.869 382.357C202.743 384.024 200.659 386.108 199.201 388.4L197.534 386.316V391.317C197.325 395.484 200.034 399.86 205.66 403.194C216.704 409.653 234.415 409.653 245.459 403.402C250.876 400.277 253.793 396.109 253.793 391.942V386.524Z" fill="#F4A856"/>
<path d="M245.459 397.985C234.415 404.236 216.495 404.236 205.66 397.776C194.617 391.317 194.825 381.107 205.66 374.647C216.704 368.396 234.623 368.396 245.459 374.856C256.502 381.315 256.502 391.525 245.459 397.985Z" fill="#FCCC6B"/>
<path d="M245.459 397.985C234.415 404.236 216.495 404.236 205.66 397.776C194.617 391.317 194.825 381.107 205.66 374.647C216.704 368.396 234.623 368.396 245.459 374.856C256.502 381.315 256.502 391.525 245.459 397.985Z" fill="url(#paint13_radial_51_389)"/>
<path d="M225.664 400.277C219.412 400.277 213.37 398.818 208.577 396.109C203.993 393.4 201.493 389.858 201.493 386.107C201.493 382.357 203.993 378.815 208.577 376.314C217.954 370.897 232.956 371.105 242.333 376.523C246.917 379.231 249.418 382.774 249.418 386.524C249.418 390.275 246.917 393.817 242.333 396.318C237.749 398.818 231.706 400.277 225.664 400.277ZM225.455 372.98C219.412 372.98 213.578 374.23 208.994 376.939C204.618 379.44 202.118 382.774 202.118 386.316C202.118 389.858 204.41 393.192 208.786 395.901C217.954 401.318 232.748 401.318 242.125 396.109C246.5 393.609 249.001 390.275 249.001 386.733C249.001 383.19 246.709 379.856 242.333 377.148C237.541 374.23 231.498 372.98 225.455 372.98Z" fill="#F4A856"/>
<path d="M242.333 396.109C233.165 401.318 218.162 401.318 208.786 395.901C199.617 390.483 199.617 381.94 208.786 376.523C217.954 371.313 232.956 371.313 242.333 376.731C251.501 382.149 251.501 390.692 242.333 396.109Z" fill="url(#paint14_radial_51_389)"/>
<path d="M208.786 377.773C217.954 372.563 232.956 372.563 242.333 377.981C246.709 380.481 249.001 383.815 249.209 387.149C249.418 383.399 247.126 379.648 242.333 376.939C233.165 371.522 218.162 371.522 208.786 376.731C203.993 379.44 201.493 383.19 201.909 386.941C202.118 383.399 204.41 380.273 208.786 377.773Z" fill="#F4A856"/>
<path d="M245.459 396.943C234.415 403.194 216.495 403.194 205.66 396.734C200.451 393.609 197.742 389.65 197.534 385.691C197.325 390.067 200.034 394.442 205.66 397.776C216.704 404.236 234.415 404.236 245.459 397.985C251.293 394.651 254.002 390.275 253.793 385.899C253.585 389.858 250.668 393.817 245.459 396.943Z" fill="#FCE586"/>
<path d="M290.883 420.697L289.424 422.989C288.174 420.697 285.882 418.613 282.757 416.738C271.713 410.278 254.002 410.278 242.958 416.529C239.833 418.196 237.749 420.28 236.29 422.572L234.623 420.488V425.489C234.415 429.657 237.124 434.032 242.75 437.366C253.793 443.826 271.505 443.826 282.548 437.575C287.966 434.449 290.883 430.282 290.883 426.114V420.697Z" fill="#F4A856"/>
<path d="M290.885 420.766C290.925 411.789 278.363 404.456 262.828 404.387C247.292 404.317 234.665 411.537 234.625 420.513C234.585 429.489 247.146 436.822 262.682 436.892C278.218 436.962 290.844 429.742 290.885 420.766Z" fill="#FCCC6B"/>
<path d="M282.548 432.366C271.505 438.617 253.585 438.617 242.75 432.157C231.706 425.698 231.915 415.488 242.75 409.028C253.793 402.777 271.713 402.777 282.548 409.237C293.8 415.696 293.592 425.906 282.548 432.366Z" fill="url(#paint15_radial_51_389)"/>
<path d="M262.753 434.658C256.502 434.658 250.459 433.199 245.667 430.49C241.083 427.781 238.582 424.239 238.582 420.488C238.582 416.738 241.083 413.196 245.667 410.695C255.044 405.278 270.046 405.486 279.423 410.903C284.007 413.612 286.507 417.155 286.507 420.905C286.507 424.656 284.007 428.198 279.423 430.699C274.839 433.199 268.796 434.658 262.753 434.658ZM262.545 407.153C256.502 407.153 250.668 408.403 246.084 411.112C241.708 413.612 239.208 416.946 239.208 420.488C239.208 424.031 241.5 427.365 245.875 430.073C255.044 435.491 269.838 435.491 279.214 430.282C283.59 427.781 286.091 424.447 286.091 420.905C286.091 417.363 283.798 414.029 279.423 411.32C274.839 408.611 268.588 407.153 262.545 407.153Z" fill="#F4A856"/>
<path d="M279.423 430.49C270.254 435.699 255.252 435.699 245.875 430.282C236.707 424.864 236.707 416.321 245.875 410.903C255.044 405.694 270.046 405.694 279.423 411.112C288.799 416.529 288.591 425.073 279.423 430.49Z" fill="url(#paint16_radial_51_389)"/>
<path d="M246.084 412.154C255.252 406.945 270.254 406.945 279.631 412.362C284.007 414.863 286.299 418.196 286.507 421.53C286.716 417.78 284.424 414.029 279.631 411.32C270.463 405.903 255.46 405.903 246.084 411.112C241.291 413.821 238.791 417.571 239.208 421.322C239.416 417.78 241.708 414.654 246.084 412.154Z" fill="#F4A856"/>
<path d="M282.548 431.115C271.505 437.366 253.585 437.366 242.75 430.907C237.541 427.781 234.832 423.822 234.623 419.863C234.415 424.239 237.124 428.615 242.75 431.949C253.793 438.408 271.505 438.408 282.548 432.157C288.383 428.823 291.091 424.447 290.883 420.072C290.675 424.239 287.966 428.198 282.548 431.115Z" fill="#FCE586"/>
<path d="M234.623 430.49L233.165 432.782C231.915 430.49 229.623 428.407 226.497 426.531C215.453 420.072 197.742 420.072 186.699 426.323C183.573 427.99 181.489 430.073 180.031 432.366L178.364 430.282V435.283C178.155 439.45 180.864 443.826 186.49 447.16C197.534 453.619 215.245 453.619 226.289 447.368C231.706 444.243 234.623 440.075 234.623 435.908V430.49Z" fill="#F4A856"/>
<path d="M234.501 430.62C234.541 421.644 221.98 414.311 206.444 414.241C190.909 414.171 178.282 421.391 178.241 430.368C178.201 439.344 190.763 446.677 206.298 446.747C221.834 446.816 234.461 439.596 234.501 430.62Z" fill="#FCCC6B"/>
<path d="M226.289 441.951C215.245 448.202 197.325 448.202 186.49 441.742C175.447 435.283 175.655 425.073 186.49 418.613C197.534 412.362 215.453 412.362 226.289 418.822C237.332 425.489 237.332 435.699 226.289 441.951Z" fill="url(#paint17_radial_51_389)"/>
<path d="M206.494 444.451C200.243 444.451 194.2 442.992 189.407 440.284C184.823 437.575 182.323 434.033 182.323 430.282C182.323 426.531 184.823 422.989 189.407 420.489C198.784 415.071 213.786 415.279 223.163 420.697C227.747 423.406 230.248 426.948 230.248 430.699C230.248 434.449 227.747 437.992 223.163 440.492C218.579 442.992 212.536 444.451 206.494 444.451ZM206.285 416.946C200.243 416.946 194.408 418.196 189.824 420.905C185.448 423.406 182.948 426.74 182.948 430.282C182.948 433.824 185.24 437.158 189.616 439.867C198.784 445.284 213.578 445.284 222.955 440.075C227.33 437.575 229.831 434.241 229.831 430.699C229.831 427.156 227.539 423.822 222.955 421.114C218.371 418.405 212.328 416.946 206.285 416.946Z" fill="#F4A856"/>
<path d="M222.955 440.284C213.786 445.493 198.784 445.493 189.407 440.075C180.239 434.658 180.239 426.115 189.407 420.697C198.576 415.488 213.578 415.488 222.955 420.905C232.331 426.323 232.331 434.866 222.955 440.284Z" fill="url(#paint18_radial_51_389)"/>
<path d="M189.616 421.947C198.784 416.738 213.786 416.738 223.163 422.155C227.539 424.656 229.831 427.99 230.039 431.324C230.248 427.573 227.956 423.822 223.163 421.114C213.995 415.696 198.992 415.696 189.616 420.905C184.823 423.614 182.323 427.365 182.74 431.115C182.948 427.573 185.24 424.448 189.616 421.947Z" fill="#F4A856"/>
<path d="M226.289 440.909C215.245 447.16 197.325 447.16 186.49 440.7C181.281 437.575 178.572 433.616 178.364 429.657C178.155 434.032 180.864 438.408 186.49 441.742C197.534 448.202 215.245 448.202 226.289 441.951C232.123 438.617 234.832 434.241 234.623 429.865C234.207 434.032 231.498 437.992 226.289 440.909Z" fill="#FCE586"/>
<path d="M261.295 420.28L259.836 422.572C258.586 420.28 256.294 418.196 253.168 416.321C242.125 409.862 224.413 409.862 213.37 416.113C210.244 417.78 208.161 419.863 206.702 422.155L205.035 420.072V425.073C204.827 429.24 207.535 433.616 213.161 436.95C224.205 443.409 241.916 443.409 252.96 437.158C258.377 434.032 261.295 429.865 261.295 425.698V420.28Z" fill="#F4A856"/>
<path d="M261.134 420.26C261.174 411.284 248.613 403.951 233.077 403.881C217.541 403.811 204.915 411.032 204.874 420.008C204.834 428.984 217.396 436.317 232.931 436.387C248.467 436.456 261.094 429.236 261.134 420.26Z" fill="#FCCC6B"/>
<path d="M252.96 431.74C241.916 437.991 223.997 437.991 213.161 431.532C202.118 425.073 202.118 414.862 213.161 408.403C224.205 402.152 242.125 402.152 252.96 408.611C264.003 415.071 264.003 425.281 252.96 431.74Z" fill="url(#paint19_radial_51_389)"/>
<path d="M233.165 434.033C226.914 434.033 220.871 432.574 216.079 429.865C211.494 427.156 208.994 423.614 208.994 419.863C208.994 416.113 211.494 412.571 216.079 410.07C225.455 404.652 240.458 404.861 249.834 410.278C254.418 412.987 256.919 416.53 256.919 420.28C256.919 424.031 254.418 427.573 249.834 430.073C245.25 432.574 239.208 434.033 233.165 434.033ZM232.956 406.736C226.914 406.736 221.079 407.986 216.495 410.695C212.12 413.196 209.619 416.53 209.619 420.072C209.619 423.614 211.911 426.948 216.287 429.657C225.455 435.074 240.249 435.074 249.626 429.865C254.002 427.365 256.502 424.031 256.502 420.489C256.502 416.946 254.21 413.612 249.834 410.904C245.042 407.986 238.999 406.736 232.956 406.736Z" fill="#F4A856"/>
<path d="M249.626 429.865C240.458 435.074 225.455 435.074 216.079 429.657C206.91 424.239 206.91 415.696 216.079 410.278C225.247 405.069 240.249 405.069 249.626 410.487C259.003 415.904 259.003 424.447 249.626 429.865Z" fill="url(#paint20_radial_51_389)"/>
<path d="M216.287 411.529C225.455 406.319 240.458 406.319 249.834 411.737C254.21 414.237 256.502 417.571 256.71 420.905C256.919 417.155 254.627 413.404 249.834 410.695C240.666 405.278 225.664 405.278 216.287 410.487C211.494 413.196 208.994 416.946 209.411 420.697C209.619 417.155 211.911 414.029 216.287 411.529Z" fill="#F4A856"/>
<path d="M252.96 430.699C241.916 436.95 223.997 436.95 213.161 430.49C207.952 427.365 205.243 423.406 205.035 419.447C204.827 423.822 207.535 428.198 213.161 431.532C224.205 437.991 241.916 437.991 252.96 431.74C258.794 428.406 261.503 424.031 261.295 419.655C260.878 423.614 258.169 427.573 252.96 430.699Z" fill="#FCE586"/>
<path d="M268.587 414.654L267.129 416.946C265.879 414.654 263.587 412.57 260.461 410.695C249.418 404.236 231.706 404.236 220.663 410.487C217.537 412.154 215.453 414.237 213.995 416.529L212.328 414.446V419.447C212.12 423.614 214.828 427.99 220.454 431.324C231.498 437.783 249.209 437.783 260.253 431.532C265.67 428.406 268.587 424.239 268.587 420.072V414.654Z" fill="#F4A856"/>
<path d="M260.253 426.114C249.209 432.365 231.289 432.365 220.454 425.906C209.411 419.447 209.411 409.237 220.454 402.777C231.498 396.526 249.418 396.526 260.253 402.985C271.296 409.445 271.296 419.655 260.253 426.114Z" fill="#FCCC6B"/>
<path d="M260.253 426.114C249.209 432.365 231.289 432.365 220.454 425.906C209.411 419.447 209.411 409.237 220.454 402.777C231.498 396.526 249.418 396.526 260.253 402.985C271.296 409.445 271.296 419.655 260.253 426.114Z" fill="url(#paint21_radial_51_389)"/>
<path d="M240.458 428.406C234.207 428.406 228.164 426.948 223.371 424.239C218.787 421.53 216.287 417.988 216.287 414.237C216.287 410.487 218.787 406.944 223.371 404.444C232.748 399.026 247.751 399.235 257.127 404.652C261.711 407.361 264.212 410.903 264.212 414.654C264.212 418.405 261.711 421.947 257.127 424.447C252.543 426.948 246.5 428.406 240.458 428.406ZM240.249 401.11C234.207 401.11 228.372 402.36 223.788 405.069C219.412 407.569 216.912 410.903 216.912 414.446C216.912 417.988 219.204 421.322 223.58 424.031C232.748 429.448 247.542 429.448 256.919 424.239C261.295 421.739 263.795 418.405 263.795 414.862C263.795 411.32 261.503 407.986 257.127 405.277C252.335 402.36 246.292 401.11 240.249 401.11Z" fill="#F4A856"/>
<path d="M256.919 424.239C247.751 429.448 232.748 429.448 223.371 424.031C214.203 418.613 214.203 410.07 223.371 404.652C232.54 399.443 247.542 399.443 256.919 404.861C266.295 410.278 266.295 418.821 256.919 424.239Z" fill="url(#paint22_radial_51_389)"/>
<path d="M223.58 405.903C232.748 400.693 247.751 400.693 257.127 406.111C261.503 408.611 263.795 411.945 264.003 415.279C264.212 411.529 261.92 407.778 257.127 405.069C247.959 399.651 232.956 399.651 223.58 404.861C218.787 407.569 216.287 411.32 216.704 415.071C216.912 411.528 219.204 408.403 223.58 405.903Z" fill="#F4A856"/>
<path d="M260.253 425.073C249.209 431.324 231.289 431.324 220.454 424.864C215.245 421.739 212.536 417.78 212.328 413.821C212.12 418.196 214.828 422.572 220.454 425.906C231.498 432.365 249.209 432.365 260.253 426.114C266.087 422.78 268.796 418.405 268.587 414.029C268.171 417.988 265.462 421.947 260.253 425.073Z" fill="#FCE586"/>
<path d="M272.338 403.819L270.88 406.111C269.629 403.819 267.337 401.735 264.212 399.86C253.168 393.4 235.457 393.4 224.413 399.652C221.288 401.318 219.204 403.402 217.746 405.694L216.079 403.611V408.611C215.87 412.779 218.579 417.155 224.205 420.488C235.248 426.948 252.96 426.948 264.003 420.697C269.421 417.571 272.338 413.404 272.338 409.236V403.819Z" fill="#F4A856"/>
<path d="M272.307 403.688C272.348 394.712 259.786 387.379 244.251 387.309C228.715 387.239 216.088 394.459 216.048 403.435C216.008 412.412 228.569 419.745 244.105 419.815C259.64 419.884 272.267 412.664 272.307 403.688Z" fill="#FCCC6B"/>
<path d="M264.003 415.279C252.96 421.53 235.04 421.53 224.205 415.071C213.161 408.611 213.37 398.401 224.205 391.942C235.248 385.691 253.168 385.691 264.003 392.15C275.047 398.61 275.047 408.82 264.003 415.279Z" fill="url(#paint23_radial_51_389)"/>
<path d="M244.208 417.571C237.957 417.571 231.915 416.113 227.122 413.404C222.538 410.695 220.038 407.153 220.038 403.402C220.038 399.652 222.538 396.109 227.122 393.609C236.499 388.191 251.501 388.4 260.878 393.817C265.462 396.526 267.962 400.068 267.962 403.819C267.962 407.57 265.462 411.112 260.878 413.612C256.294 416.113 250.251 417.571 244.208 417.571ZM244 390.275C237.957 390.275 232.123 391.525 227.539 394.234C223.163 396.734 220.663 400.068 220.663 403.611C220.663 407.153 222.955 410.487 227.33 413.196C236.499 418.613 251.293 418.613 260.669 413.404C265.045 410.904 267.546 407.57 267.546 404.027C267.546 400.485 265.254 397.151 260.878 394.442C256.294 391.525 250.043 390.275 244 390.275Z" fill="#F4A856"/>
<path d="M260.878 413.404C251.71 418.613 236.707 418.613 227.33 413.195C218.162 407.778 218.162 399.235 227.33 393.817C236.499 388.608 251.501 388.608 260.878 394.026C270.254 399.443 270.046 407.986 260.878 413.404Z" fill="url(#paint24_radial_51_389)"/>
<path d="M227.539 395.067C236.707 389.858 251.71 389.858 261.086 395.276C265.462 397.776 267.754 401.11 267.962 404.444C268.171 400.693 265.879 396.943 261.086 394.234C251.918 388.816 236.915 388.816 227.539 394.026C222.746 396.734 220.246 400.485 220.663 404.236C220.663 400.693 223.163 397.568 227.539 395.067Z" fill="#F4A856"/>
<path d="M264.003 414.237C252.96 420.488 235.04 420.488 224.205 414.029C218.996 410.903 216.287 406.944 216.079 402.985C215.87 407.361 218.579 411.737 224.205 415.071C235.248 421.53 252.96 421.53 264.003 415.279C269.838 411.945 272.547 407.57 272.338 403.194C272.13 407.153 269.421 411.112 264.003 414.237Z" fill="#FCE586"/>
<path d="M291.925 408.195L289.841 410.07C289.008 407.57 287.341 405.069 284.632 402.569C275.255 394.026 257.752 390.275 245.667 394.234C242.333 395.276 239.833 396.943 237.957 398.818L236.707 396.318L235.665 401.11C234.623 405.278 236.499 410.07 241.291 414.237C250.668 422.781 268.171 426.531 280.256 422.572C286.299 420.697 289.841 417.155 290.675 412.987L291.925 408.195Z" fill="#F4A856"/>
<path d="M281.298 417.78C269.213 421.739 251.71 417.988 242.333 409.445C232.956 400.902 235.04 390.9 247.126 386.941C259.211 382.982 276.714 386.733 286.091 395.276C295.675 403.819 293.383 413.821 281.298 417.78Z" fill="#FCCC6B"/>
<path d="M281.298 417.78C269.213 421.739 251.71 417.988 242.333 409.445C232.956 400.902 235.04 390.9 247.126 386.941C259.211 382.982 276.714 386.733 286.091 395.276C295.675 403.819 293.383 413.821 281.298 417.78Z" fill="url(#paint25_radial_51_389)"/>
<path d="M261.503 415.904C255.46 414.654 249.626 411.945 245.667 408.403C241.708 404.861 240.041 400.902 240.874 397.359C241.708 393.609 244.833 390.9 249.834 389.233C260.044 385.899 274.839 389.025 282.757 396.318C286.716 399.86 288.383 403.819 287.549 407.361C286.716 411.112 283.59 413.821 278.589 415.488C273.588 417.154 267.546 417.155 261.503 415.904ZM266.921 389.233C261.086 387.983 255.044 387.983 250.043 389.65C245.25 391.108 242.125 394.026 241.5 397.568C240.666 401.11 242.333 404.861 246.084 408.195C254.002 415.279 268.588 418.405 278.589 415.071C283.382 413.612 286.507 410.695 287.132 407.153C287.966 403.611 286.299 399.86 282.548 396.526C278.589 392.984 272.755 390.483 266.921 389.233Z" fill="#F4A856"/>
<path d="M278.589 415.279C268.379 418.613 253.793 415.488 245.875 408.195C237.957 401.11 239.833 392.567 249.834 389.233C260.044 385.899 274.63 389.025 282.548 396.318C290.675 403.611 288.799 411.945 278.589 415.279Z" fill="url(#paint26_radial_51_389)"/>
<path d="M249.626 390.483C259.836 387.149 274.422 390.275 282.34 397.568C286.091 400.902 287.757 404.652 287.132 407.986C288.174 404.444 286.716 400.277 282.548 396.526C274.63 389.441 260.044 386.316 249.834 389.441C244.417 391.108 241.5 394.442 240.874 397.985C241.916 394.651 244.833 391.942 249.626 390.483Z" fill="#F4A856"/>
<path d="M281.506 416.738C269.421 420.697 251.918 416.946 242.541 408.403C237.957 404.236 236.082 399.86 236.707 395.901C235.457 400.068 237.332 404.861 242.333 409.445C251.71 417.988 269.213 421.739 281.298 417.78C287.549 415.696 291.3 411.945 291.925 407.778C290.883 411.529 287.341 414.863 281.506 416.738Z" fill="#FCE586"/>
<path d="M248.792 289.633L246.292 290.883C246.292 288.174 245.25 285.257 243.583 282.132C237.124 271.088 221.705 262.336 208.994 262.336C205.452 262.336 202.535 262.962 200.243 264.212L199.826 261.503L197.325 265.879C195.033 269.421 195.45 274.63 198.576 280.256C205.035 291.3 220.454 300.051 233.165 300.051C239.624 300.051 244 297.759 246.084 294.217L248.792 289.633Z" fill="#F4A856"/>
<path d="M248.771 289.421C253.226 281.628 245.903 269.06 232.415 261.35C218.927 253.639 204.381 253.706 199.926 261.499C195.471 269.293 202.794 281.861 216.282 289.571C229.77 297.281 244.316 297.214 248.771 289.421Z" fill="#FCCC6B"/>
<path d="M235.874 295.467C223.163 295.467 207.744 286.716 201.284 275.672C194.825 264.629 200.034 255.669 212.745 255.669C225.455 255.669 240.874 264.42 247.334 275.464C253.793 286.507 248.792 295.467 235.874 295.467Z" fill="url(#paint27_radial_51_389)"/>
<path d="M217.537 287.758C212.12 284.632 207.535 280.465 204.827 275.88C202.118 271.296 201.701 267.129 203.576 263.795C205.452 260.461 209.411 258.794 214.62 258.794C225.455 258.794 238.582 266.296 243.792 275.464C246.5 280.048 246.917 284.215 245.042 287.549C243.167 290.883 239.208 292.55 233.998 292.55C228.789 292.55 222.955 290.675 217.537 287.758ZM230.873 263.795C225.664 260.878 219.829 259.003 214.62 259.003C209.619 259.003 205.868 260.67 203.993 263.795C202.326 266.921 202.743 271.088 205.243 275.464C210.661 284.632 223.58 291.925 234.207 291.925C239.208 291.925 242.958 290.258 244.833 287.132C246.5 284.007 246.084 279.84 243.583 275.464C240.874 270.88 236.082 266.712 230.873 263.795Z" fill="#F4A856"/>
<path d="M234.207 292.133C223.58 292.133 210.453 284.84 205.035 275.464C199.617 266.295 203.993 258.794 214.62 258.586C225.247 258.586 238.374 265.879 243.792 275.255C249.001 284.632 244.833 292.133 234.207 292.133Z" fill="url(#paint28_radial_51_389)"/>
<path d="M213.995 259.836C224.622 259.836 237.749 267.129 243.167 276.506C245.667 280.881 246.084 284.84 244.625 287.758C246.709 284.632 246.5 280.256 243.792 275.464C238.374 266.296 225.455 258.794 214.62 258.794C208.994 258.794 205.243 260.878 203.576 264.212C205.452 261.503 208.994 259.836 213.995 259.836Z" fill="#F4A856"/>
<path d="M236.499 294.425C223.788 294.425 208.369 285.674 201.909 274.63C198.784 269.421 198.367 264.629 200.243 261.086C197.95 264.837 198.159 269.838 201.493 275.672C207.952 286.716 223.371 295.467 236.082 295.467C242.75 295.467 247.334 292.967 249.209 289.008C246.917 292.342 242.541 294.425 236.499 294.425Z" fill="#FCE586"/>
<path d="M243.375 338.808L243.166 341.517C240.874 340.266 237.957 339.433 234.207 339.433C221.496 339.225 205.868 347.976 199.409 359.02C197.534 362.145 196.7 364.854 196.492 367.563L193.991 366.521L196.492 370.897C198.576 374.647 202.951 376.939 209.411 377.148C222.121 377.356 237.749 368.605 244.208 357.561C247.542 352.143 247.751 347.143 245.875 343.392L243.375 338.808Z" fill="#F4A856"/>
<path d="M241.916 352.977C235.457 363.812 219.829 372.564 207.119 372.564C194.408 372.355 189.407 363.395 195.867 352.56C202.326 341.725 217.954 332.974 230.664 332.974C243.375 332.974 248.376 341.933 241.916 352.977Z" fill="#FCCC6B"/>
<path d="M241.916 352.977C235.457 363.812 219.829 372.564 207.119 372.564C194.408 372.355 189.407 363.395 195.867 352.56C202.326 341.725 217.954 332.974 230.664 332.974C243.375 332.974 248.376 341.933 241.916 352.977Z" fill="url(#paint29_radial_51_389)"/>
<path d="M225.872 364.646C220.454 367.771 214.412 369.438 208.994 369.438C203.785 369.438 199.826 367.563 197.95 364.229C196.075 360.895 196.492 356.728 199.201 352.143C204.618 342.975 217.954 335.474 228.581 335.682C233.79 335.682 237.749 337.558 239.624 340.892C241.5 344.225 241.083 348.393 238.374 352.977C235.665 357.561 231.081 361.728 225.872 364.646ZM212.12 341.1C206.91 344.017 202.326 348.184 199.826 352.56C197.325 356.936 196.7 361.103 198.576 364.229C200.242 367.354 203.993 369.021 209.202 369.23C219.829 369.438 232.748 362.145 238.166 352.977C240.666 348.601 241.291 344.434 239.416 341.308C237.749 338.183 233.998 336.516 228.789 336.307C223.371 336.307 217.329 337.974 212.12 341.1Z" fill="#F4A856"/>
<path d="M238.166 352.977C232.748 362.145 219.621 369.438 208.994 369.438C198.367 369.23 193.991 361.728 199.617 352.56C205.035 343.392 218.162 336.099 228.789 336.099C239.416 336.099 243.583 343.809 238.166 352.977Z" fill="url(#paint30_radial_51_389)"/>
<path d="M200.034 353.394C205.452 344.225 218.579 336.932 229.206 336.932C234.207 336.932 237.957 338.808 239.624 341.517C237.957 338.183 234.207 336.099 228.581 335.891C217.954 335.682 204.827 343.184 199.409 352.352C196.492 357.144 196.283 361.52 198.367 364.646C197.117 361.728 197.534 357.769 200.034 353.394Z" fill="#F4A856"/>
<path d="M241.291 351.935C234.832 362.77 219.204 371.522 206.494 371.522C200.451 371.522 196.075 369.438 193.991 365.896C195.867 369.855 200.451 372.355 207.119 372.355C219.829 372.564 235.457 363.812 241.916 352.769C245.25 347.143 245.459 341.933 243.166 338.183C244.833 341.933 244.417 346.726 241.291 351.935Z" fill="#FCE586"/>
<path d="M76.4714 339.016C75.4296 339.016 74.5961 338.808 73.7626 338.183L0.833476 296.092C0.208369 295.884 0 295.467 0 295.05C0 294.634 0.208369 294.217 0.625107 293.8L65.2195 256.502L65.8446 257.544L1.25021 294.842L74.1793 337.141C75.4296 337.974 77.0965 337.974 78.3467 337.141L121.896 312.137C123.563 311.095 125.855 311.095 127.522 312.137L145.442 322.555L144.816 323.597L126.897 313.178C125.646 312.345 123.98 312.345 122.729 313.178L79.1802 338.183C78.3467 338.808 77.3049 339.016 76.4714 339.016Z" fill="white"/>
<path d="M402.777 276.922L334.849 203.993L266.712 198.367C266.712 198.367 255.877 290.466 334.64 388.191C413.612 381.523 402.777 276.922 402.777 276.922Z" fill="url(#paint31_linear_51_389)"/>
<path d="M266.712 198.367L251.501 207.119L319.43 212.745L334.849 203.785L266.712 198.367Z" fill="url(#paint32_linear_51_389)"/>
<path d="M387.358 285.674L319.43 212.745L291.508 209.827L251.501 207.119C251.501 207.119 240.666 299.218 319.43 396.943C398.401 390.483 387.358 285.674 387.358 285.674Z" fill="url(#paint33_linear_51_389)"/>
<path d="M387.358 285.674L319.43 212.745L251.501 207.327C253.377 206.285 253.377 206.285 253.377 206.285L322.347 211.911L390.275 284.84C390.275 284.84 399.443 372.355 340.683 392.567C396.318 370.48 387.358 285.674 387.358 285.674Z" fill="white"/>
<path opacity="0.2" d="M379.231 286.716L318.179 221.079L292.967 218.579L256.919 216.079C256.919 216.079 247.126 299.009 317.971 386.733C389.025 380.898 379.231 286.716 379.231 286.716Z" fill="white"/>
</g>
<defs>
<linearGradient id="paint0_linear_51_389" x1="91.2468" y1="192.13" x2="33.2969" y2="147.36" gradientUnits="userSpaceOnUse">
<stop stop-color="#59BDEF"/>
<stop offset="1" stop-color="#7BDAFF"/>
</linearGradient>
<linearGradient id="paint1_linear_51_389" x1="91.4794" y1="213.486" x2="123.904" y2="213.486" gradientUnits="userSpaceOnUse">
<stop stop-color="#2573BA"/>
<stop offset="1" stop-color="#0063AD"/>
</linearGradient>
<linearGradient id="paint2_linear_51_389" x1="50.6745" y1="211.068" x2="91.4794" y2="211.068" gradientUnits="userSpaceOnUse">
<stop stop-color="#3A9BD5"/>
<stop offset="1" stop-color="#2573BA"/>
</linearGradient>
<linearGradient id="paint3_linear_51_389" x1="58.0999" y1="188.578" x2="75.7737" y2="188.578" gradientUnits="userSpaceOnUse">
<stop stop-color="#2573BA"/>
<stop offset="1" stop-color="#0063AD"/>
</linearGradient>
<linearGradient id="paint4_linear_51_389" x1="69.3214" y1="195.053" x2="86.995" y2="195.053" gradientUnits="userSpaceOnUse">
<stop stop-color="#2573BA"/>
<stop offset="1" stop-color="#0063AD"/>
</linearGradient>
<linearGradient id="paint5_linear_51_389" x1="80.5552" y1="201.538" x2="98.2288" y2="201.538" gradientUnits="userSpaceOnUse">
<stop stop-color="#2573BA"/>
<stop offset="1" stop-color="#0063AD"/>
</linearGradient>
<linearGradient id="paint6_linear_51_389" x1="236.551" y1="216.186" x2="654.302" y2="216.186" gradientUnits="userSpaceOnUse">
<stop stop-color="#3A9BD5"/>
<stop offset="0.522" stop-color="#3088C8"/>
<stop offset="1" stop-color="#297BBF"/>
</linearGradient>
<linearGradient id="paint7_linear_51_389" x1="202.412" y1="80.887" x2="484.664" y2="225.393" gradientUnits="userSpaceOnUse">
<stop stop-color="#59BDEF"/>
<stop offset="1" stop-color="#7BDAFF"/>
</linearGradient>
<radialGradient id="paint8_radial_51_389" cx="0" cy="0" r="1" gradientUnits="userSpaceOnUse" gradientTransform="translate(202.899 218.697) rotate(-51.5165) scale(40.2738 40.2738)">
<stop stop-color="#FCE586"/>
<stop offset="0.2273" stop-color="#FCDB7B"/>
<stop offset="0.6161" stop-color="#FCD06F"/>
<stop offset="1" stop-color="#FCCC6B"/>
</radialGradient>
<radialGradient id="paint9_radial_51_389" cx="0" cy="0" r="1" gradientUnits="userSpaceOnUse" gradientTransform="translate(243.27 225.842) rotate(-51.5165) scale(95.804)">
<stop stop-color="#FCE586"/>
<stop offset="0.2273" stop-color="#FCDB7B"/>
<stop offset="0.6161" stop-color="#FCD06F"/>
<stop offset="1" stop-color="#FCCC6B"/>
</radialGradient>
<linearGradient id="paint10_linear_51_389" x1="144.57" y1="143.701" x2="317.374" y2="143.701" gradientUnits="userSpaceOnUse">
<stop stop-color="#7BDAFF"/>
<stop offset="1" stop-color="#59BDEF"/>
</linearGradient>
<radialGradient id="paint11_radial_51_389" cx="0" cy="0" r="1" gradientUnits="userSpaceOnUse" gradientTransform="translate(204.4 383.931) rotate(-17.0741) scale(40.2735 40.2735)">
<stop stop-color="#FCE586"/>
<stop offset="0.2273" stop-color="#FCDB7B"/>
<stop offset="0.6161" stop-color="#FCD06F"/>
<stop offset="1" stop-color="#FCCC6B"/>
</radialGradient>
<radialGradient id="paint12_radial_51_389" cx="0" cy="0" r="1" gradientUnits="userSpaceOnUse" gradientTransform="translate(233.653 412.656) rotate(-17.0741) scale(95.8044 95.8044)">
<stop stop-color="#FCE586"/>
<stop offset="0.2273" stop-color="#FCDB7B"/>
<stop offset="0.6161" stop-color="#FCD06F"/>
<stop offset="1" stop-color="#FCCC6B"/>
</radialGradient>
<radialGradient id="paint13_radial_51_389" cx="0" cy="0" r="1" gradientUnits="userSpaceOnUse" gradientTransform="translate(209.241 377.021) rotate(-17.0741) scale(40.2737 40.2737)">
<stop stop-color="#FCE586"/>
<stop offset="0.2273" stop-color="#FCDB7B"/>
<stop offset="0.6161" stop-color="#FCD06F"/>
<stop offset="1" stop-color="#FCCC6B"/>
</radialGradient>
<radialGradient id="paint14_radial_51_389" cx="0" cy="0" r="1" gradientUnits="userSpaceOnUse" gradientTransform="translate(238.494 405.746) rotate(-17.0741) scale(95.8044 95.8044)">
<stop stop-color="#FCE586"/>
<stop offset="0.2273" stop-color="#FCDB7B"/>
<stop offset="0.6161" stop-color="#FCD06F"/>
<stop offset="1" stop-color="#FCCC6B"/>
</radialGradient>
<radialGradient id="paint15_radial_51_389" cx="0" cy="0" r="1" gradientUnits="userSpaceOnUse" gradientTransform="translate(246.405 411.363) rotate(-17.0741) scale(40.2735 40.2735)">
<stop stop-color="#FCE586"/>
<stop offset="0.2273" stop-color="#FCDB7B"/>
<stop offset="0.6161" stop-color="#FCD06F"/>
<stop offset="1" stop-color="#FCCC6B"/>
</radialGradient>
<radialGradient id="paint16_radial_51_389" cx="0" cy="0" r="1" gradientUnits="userSpaceOnUse" gradientTransform="translate(275.658 440.088) rotate(-17.0741) scale(95.8044 95.8044)">
<stop stop-color="#FCE586"/>
<stop offset="0.2273" stop-color="#FCDB7B"/>
<stop offset="0.6161" stop-color="#FCD06F"/>
<stop offset="1" stop-color="#FCCC6B"/>
</radialGradient>
<radialGradient id="paint17_radial_51_389" cx="0" cy="0" r="1" gradientUnits="userSpaceOnUse" gradientTransform="translate(190.009 421.145) rotate(-17.0741) scale(40.2735 40.2735)">
<stop stop-color="#FCE586"/>
<stop offset="0.2273" stop-color="#FCDB7B"/>
<stop offset="0.6161" stop-color="#FCD06F"/>
<stop offset="1" stop-color="#FCCC6B"/>
</radialGradient>
<radialGradient id="paint18_radial_51_389" cx="0" cy="0" r="1" gradientUnits="userSpaceOnUse" gradientTransform="translate(219.262 449.869) rotate(-17.0741) scale(95.8044 95.8044)">
<stop stop-color="#FCE586"/>
<stop offset="0.2273" stop-color="#FCDB7B"/>
<stop offset="0.6161" stop-color="#FCD06F"/>
<stop offset="1" stop-color="#FCCC6B"/>
</radialGradient>
<radialGradient id="paint19_radial_51_389" cx="0" cy="0" r="1" gradientUnits="userSpaceOnUse" gradientTransform="translate(216.691 410.775) rotate(-17.0741) scale(40.2735 40.2735)">
<stop stop-color="#FCE586"/>
<stop offset="0.2273" stop-color="#FCDB7B"/>
<stop offset="0.6161" stop-color="#FCD06F"/>
<stop offset="1" stop-color="#FCCC6B"/>
</radialGradient>
<radialGradient id="paint20_radial_51_389" cx="0" cy="0" r="1" gradientUnits="userSpaceOnUse" gradientTransform="translate(245.944 439.5) rotate(-17.0741) scale(95.8046)">
<stop stop-color="#FCE586"/>
<stop offset="0.2273" stop-color="#FCDB7B"/>
<stop offset="0.6161" stop-color="#FCD06F"/>
<stop offset="1" stop-color="#FCCC6B"/>
</radialGradient>
<radialGradient id="paint21_radial_51_389" cx="0" cy="0" r="1" gradientUnits="userSpaceOnUse" gradientTransform="translate(223.984 405.138) rotate(-17.0741) scale(40.2735 40.2735)">
<stop stop-color="#FCE586"/>
<stop offset="0.2273" stop-color="#FCDB7B"/>
<stop offset="0.6161" stop-color="#FCD06F"/>
<stop offset="1" stop-color="#FCCC6B"/>
</radialGradient>
<radialGradient id="paint22_radial_51_389" cx="0" cy="0" r="1" gradientUnits="userSpaceOnUse" gradientTransform="translate(253.237 433.863) rotate(-17.0741) scale(95.8046)">
<stop stop-color="#FCE586"/>
<stop offset="0.2273" stop-color="#FCDB7B"/>
<stop offset="0.6161" stop-color="#FCD06F"/>
<stop offset="1" stop-color="#FCCC6B"/>
</radialGradient>
<radialGradient id="paint23_radial_51_389" cx="0" cy="0" r="1" gradientUnits="userSpaceOnUse" gradientTransform="translate(227.848 394.298) rotate(-17.0741) scale(40.2735 40.2735)">
<stop stop-color="#FCE586"/>
<stop offset="0.2273" stop-color="#FCDB7B"/>
<stop offset="0.6161" stop-color="#FCD06F"/>
<stop offset="1" stop-color="#FCCC6B"/>
</radialGradient>
<radialGradient id="paint24_radial_51_389" cx="0" cy="0" r="1" gradientUnits="userSpaceOnUse" gradientTransform="translate(257.101 423.022) rotate(-17.0741) scale(95.8044 95.8044)">
<stop stop-color="#FCE586"/>
<stop offset="0.2273" stop-color="#FCDB7B"/>
<stop offset="0.6161" stop-color="#FCD06F"/>
<stop offset="1" stop-color="#FCCC6B"/>
</radialGradient>
<radialGradient id="paint25_radial_51_389" cx="0" cy="0" r="1" gradientUnits="userSpaceOnUse" gradientTransform="translate(250.208 389.87) rotate(-5.26135) scale(40.2735 40.2735)">
<stop stop-color="#FCE586"/>
<stop offset="0.2273" stop-color="#FCDB7B"/>
<stop offset="0.6161" stop-color="#FCD06F"/>
<stop offset="1" stop-color="#FCCC6B"/>
</radialGradient>
<radialGradient id="paint26_radial_51_389" cx="0" cy="0" r="1" gradientUnits="userSpaceOnUse" gradientTransform="translate(272.961 423.975) rotate(-5.26134) scale(95.8045 95.8045)">
<stop stop-color="#FCE586"/>
<stop offset="0.2273" stop-color="#FCDB7B"/>
<stop offset="0.6161" stop-color="#FCD06F"/>
<stop offset="1" stop-color="#FCCC6B"/>
</radialGradient>
<radialGradient id="paint27_radial_51_389" cx="0" cy="0" r="1" gradientUnits="userSpaceOnUse" gradientTransform="translate(214.754 259.397) rotate(12.4213) scale(40.2736 40.2737)">
<stop stop-color="#FCE586"/>
<stop offset="0.2273" stop-color="#FCDB7B"/>
<stop offset="0.6161" stop-color="#FCD06F"/>
<stop offset="1" stop-color="#FCCC6B"/>
</radialGradient>
<radialGradient id="paint28_radial_51_389" cx="0" cy="0" r="1" gradientUnits="userSpaceOnUse" gradientTransform="translate(226.073 298.802) rotate(12.4213) scale(95.8042 95.8042)">
<stop stop-color="#FCE586"/>
<stop offset="0.2273" stop-color="#FCDB7B"/>
<stop offset="0.6161" stop-color="#FCD06F"/>
<stop offset="1" stop-color="#FCCC6B"/>
</radialGradient>
<radialGradient id="paint29_radial_51_389" cx="0" cy="0" r="1" gradientUnits="userSpaceOnUse" gradientTransform="translate(200.028 352.609) rotate(-46.6167) scale(40.2737)">
<stop stop-color="#FCE586"/>
<stop offset="0.2273" stop-color="#FCDB7B"/>
<stop offset="0.6161" stop-color="#FCD06F"/>
<stop offset="1" stop-color="#FCCC6B"/>
</radialGradient>
<radialGradient id="paint30_radial_51_389" cx="0" cy="0" r="1" gradientUnits="userSpaceOnUse" gradientTransform="translate(239.642 363.176) rotate(-46.6167) scale(95.8041 95.8041)">
<stop stop-color="#FCE586"/>
<stop offset="0.2273" stop-color="#FCDB7B"/>
<stop offset="0.6161" stop-color="#FCD06F"/>
<stop offset="1" stop-color="#FCCC6B"/>
</radialGradient>
<linearGradient id="paint31_linear_51_389" x1="315.095" y1="275.593" x2="519.44" y2="338.298" gradientUnits="userSpaceOnUse">
<stop stop-color="#2573BA"/>
<stop offset="0.907" stop-color="#0364AE"/>
<stop offset="1" stop-color="#0063AD"/>
</linearGradient>
<linearGradient id="paint32_linear_51_389" x1="334.756" y1="205.538" x2="251.495" y2="205.538" gradientUnits="userSpaceOnUse">
<stop stop-color="#0063AD"/>
<stop offset="1" stop-color="#2573BA"/>
</linearGradient>
<linearGradient id="paint33_linear_51_389" x1="250.981" y1="265.346" x2="387.945" y2="265.346" gradientUnits="userSpaceOnUse">
<stop stop-color="#7BDAFF"/>
<stop offset="1" stop-color="#59BDEF"/>
</linearGradient>
<clipPath id="clip0_51_389">
<rect width="490.5" height="488" fill="white"/>
</clipPath>
</defs>
</svg>
