<svg width="164" height="67" viewBox="0 0 164 67" fill="none" xmlns="http://www.w3.org/2000/svg">
<g opacity="0.3">
<path d="M67.7098 66.3111C66.9179 66.3111 66.3899 65.9429 66.3899 65.3907C66.3899 64.8385 66.9179 64.4704 67.7098 64.2863C88.563 63.1819 109.68 58.7642 126.838 51.7696C145.316 44.2228 156.666 36.86 159.834 29.6813C160.098 29.1291 160.89 28.945 161.681 29.1291C162.473 29.3132 162.737 29.8654 162.473 30.4176C158.778 38.1485 147.427 45.8794 128.158 53.6103C110.472 60.6049 89.091 65.2067 67.7098 66.3111Z" fill="white"/>
<path d="M161.945 25.8157C161.154 25.8157 160.626 25.4476 160.626 24.8954C160.362 19.1892 154.29 13.8512 143.204 9.24947C118.919 -0.506202 86.9792 -0.506191 53.7196 9.43355C52.9277 9.61762 52.1358 9.43355 51.8718 8.88134C51.6079 8.32913 51.8719 7.77693 52.6637 7.59286C86.9793 -2.53095 119.447 -2.53095 144.788 7.59286C156.666 12.3787 163.265 18.2689 163.529 24.7113C163.265 25.4476 162.737 25.8157 161.945 25.8157Z" fill="white"/>
<path d="M46.3286 66.3109C34.4501 65.5747 24.1554 63.5499 16.5004 60.4207C7.78959 56.9234 2.51029 52.3217 0.9265 46.7996C0.662535 46.0633 0.926508 45.327 1.7184 44.5908C3.03823 43.4863 5.67786 42.9341 8.58148 42.9341C11.7491 43.1182 14.3887 44.0385 14.9167 45.5111C16.5005 49.1925 20.4599 52.5057 26.5311 54.8986C48.1763 63.5499 89.8828 60.9729 119.447 49.0084C138.452 41.2775 148.747 33.5466 148.747 26.3679C148.747 21.398 143.732 16.6122 133.965 12.7468C108.888 2.62295 75.1008 4.8318 41.0492 18.637C28.6429 23.6069 19.932 29.6811 16.2365 35.7554C15.4446 37.0439 13.0689 37.7802 10.1653 37.9643C7.26167 37.9643 4.886 37.228 3.83014 36.1236C3.30221 35.3873 3.03822 34.651 3.56616 33.9147C8.5815 26.736 18.6122 20.1095 32.8663 14.4034C33.6582 14.2193 34.4501 14.2193 34.7141 14.7715C34.9781 15.3237 34.9781 15.8759 34.1862 16.06C20.46 21.5821 10.6932 28.0245 5.94183 34.8351C5.94183 35.0191 5.94183 35.0192 5.94183 35.2032C6.46976 35.7554 7.78959 36.1236 9.90131 36.1236C12.013 36.1236 13.0689 35.5714 13.3329 35.2032C17.2924 28.7608 26.5312 22.3184 39.4655 17.1644C74.5729 2.9911 109.416 0.966349 135.285 11.2742C145.844 15.5078 151.387 20.8458 151.387 26.552C151.387 34.4669 141.092 42.7501 120.767 50.8491C90.4108 62.9977 47.3844 65.7587 24.9474 56.7393C18.0843 53.9783 13.5968 50.2969 12.013 46.2474C11.7491 45.6952 10.1653 45.143 8.05356 45.143C5.94184 45.143 4.09409 45.5111 3.56616 46.0633C3.30219 46.2474 3.30217 46.4315 3.30217 46.6155C4.622 51.4013 9.63737 55.6349 17.5563 58.7641C24.9474 61.7092 34.7141 63.734 46.0646 64.4702C46.8565 64.4702 47.3844 65.0225 47.3844 65.5747C47.6484 65.9428 47.1204 66.3109 46.3286 66.3109Z" fill="white"/>
<path d="M81.4359 56.3709C79.3242 56.3709 76.9484 55.8186 75.8926 54.8983C75.1007 54.162 74.8368 53.4258 75.1007 52.6895C75.6287 51.5851 77.2124 50.8488 79.3241 50.4806C88.8269 49.1921 97.8017 46.7992 105.721 43.6701C118.655 38.5161 125.782 33.3622 126.838 28.7605C127.366 26.5516 126.046 24.3428 123.406 22.318C122.35 21.5818 122.087 20.8455 122.351 20.1092C122.614 19.0048 123.934 18.2685 126.046 17.7163C129.478 16.796 133.701 17.3482 135.549 18.8207C139.244 21.5817 141.092 24.7109 140.828 28.0242C140.3 32.81 135.285 37.7798 126.046 42.7497C125.518 43.1179 124.462 42.9338 124.198 42.5657C123.67 42.1975 123.934 41.4612 124.462 41.2772C133.173 36.6754 137.661 32.2578 138.188 28.0242C138.452 25.2631 137.133 22.6862 133.701 20.2933C132.645 19.557 129.478 19.0048 127.102 19.7411C125.782 20.1092 125.254 20.4773 125.254 20.6614C125.254 20.6614 125.254 20.8455 125.518 21.2136C128.95 23.6065 130.269 26.3676 129.742 29.1286C128.686 34.4666 121.031 39.9887 107.304 45.5108C99.1216 48.824 89.8828 51.2169 80.1161 52.5054C78.7962 52.6895 78.0043 53.0576 78.0043 53.4257C78.0043 53.4257 78.0043 53.6098 78.2683 53.7939C79.0602 54.3461 81.1719 54.7142 83.2836 54.5302C94.1062 52.8735 104.401 50.1125 113.112 46.6152C113.904 46.4311 114.696 46.4311 114.959 46.9833C115.223 47.5355 115.223 48.0877 114.432 48.2718C105.457 51.9532 94.6341 54.7142 83.8115 56.3709C82.7557 56.3709 81.9638 56.3709 81.4359 56.3709Z" fill="white"/>
<path d="M59.5267 57.8436H59.2628C48.9681 57.6596 40.2572 56.187 33.9221 53.6101C26.531 50.665 22.8355 46.6154 22.8355 41.8296C22.8355 34.4669 32.0743 26.3678 47.3843 20.1094C71.9331 10.3538 96.2179 7.04054 116.279 11.2741C118.391 11.6423 119.975 12.5626 120.239 13.667C120.503 14.4033 120.239 15.3236 119.447 16.0599C117.599 17.5325 113.64 18.0847 110.208 17.3484C95.9539 14.4033 78.0043 16.4281 59.7907 23.2386C58.9988 23.4227 58.7348 23.7908 58.7348 23.9749C58.7348 24.159 58.9988 24.3431 59.5267 24.5271C61.1105 25.0793 63.7501 25.0793 65.3339 24.5271C83.5475 17.7166 100.705 16.6121 112.056 21.2139C116.543 23.0546 119.183 25.4475 119.183 28.2085C119.183 32.6262 112.848 37.596 100.441 42.5659C83.2836 49.3765 60.8465 51.5853 50.2879 47.3517C46.8564 46.0632 45.0086 44.2225 44.4807 41.8296C43.9527 38.8845 45.8005 35.5713 50.2879 32.258C50.5519 32.074 50.5519 31.8899 50.5519 31.8899C50.5519 31.7058 50.024 31.3377 49.2321 31.1536C47.1203 30.6014 44.2167 30.9695 43.4248 31.7058C38.6735 35.3872 36.2977 39.0686 37.0896 42.3818C37.6176 44.9588 39.9932 47.1676 44.2167 48.8243C48.4401 50.4809 54.2474 51.5853 60.8465 51.7694C64.2781 51.9535 66.9178 53.0578 67.1817 54.7145C67.1817 55.4508 66.9177 56.003 66.1258 56.5552C63.7501 57.2914 61.6384 57.8436 59.5267 57.8436ZM97.8017 11.2741C82.4917 11.2741 65.5979 14.7714 48.4402 21.582C33.9221 27.4722 25.2112 34.835 25.2112 41.4615C25.2112 45.511 28.6427 49.0083 34.9779 51.5853C41.0491 53.9782 49.2321 55.4508 58.9988 55.6348C60.8465 55.6348 62.1663 55.2667 62.6943 54.8986C62.9582 54.7145 62.9583 54.7145 62.9583 54.5304C62.9583 53.9782 61.6384 53.426 59.2628 53.2419C52.1357 52.8738 46.0645 51.7694 41.3131 49.9287C36.5617 47.9039 33.6581 45.3269 32.8662 42.1978C32.0743 38.3323 34.45 34.0987 39.9933 30.0492C41.841 28.5766 46.0645 28.2085 48.9681 29.1289C50.5519 29.6811 51.6077 30.4173 51.8717 31.1536C52.1357 31.8899 51.8717 32.6262 51.0798 33.1784C47.3843 35.9394 45.5366 38.8845 46.0645 41.0934C46.3284 42.75 47.9122 44.0385 50.5519 45.1429C60.3186 49.1924 81.6998 46.9836 98.0657 40.3571C109.416 35.7553 115.487 31.3377 115.487 27.6563C115.487 25.6315 113.64 23.7909 109.944 22.3183C99.3855 18.0847 83.2836 19.3732 65.8619 25.8156C63.4862 26.7359 59.7907 26.7359 57.415 25.8156C56.0951 25.2634 55.3033 24.343 55.3033 23.4227C55.3033 22.5023 56.0952 21.582 57.6789 21.0298C76.6845 14.0352 95.426 11.8263 110.208 14.9555C112.848 15.5077 115.487 14.9555 116.543 14.2192C116.807 13.8511 116.807 13.8511 116.807 13.667C116.543 13.2989 116.015 12.9308 114.695 12.5626C109.68 11.8263 103.873 11.2741 97.8017 11.2741Z" fill="white"/>
<path d="M66.1259 44.9589C62.6944 44.9589 60.0548 44.5908 57.943 43.6704C55.8313 42.7501 54.5115 41.4616 54.5115 39.805C54.5115 36.3077 59.7908 32.074 68.7656 28.5767C83.2837 22.6865 95.954 21.214 103.609 24.1591C106.777 25.4476 107.569 27.1042 107.569 28.2086C107.569 30.9696 103.873 34.2829 96.482 37.5961C94.1063 38.7005 90.1468 38.7005 87.7711 37.7802C86.4513 37.228 85.6594 36.4917 85.6594 35.5714C85.6594 34.651 86.1873 33.9148 87.5072 33.3625C93.5784 30.6015 93.5784 29.4971 93.5784 29.4971C91.9946 28.7608 86.7153 29.313 77.4765 33.1785C71.1413 35.7554 68.5017 37.9643 68.5017 38.5165C68.5017 39.0687 67.9737 39.4368 67.1818 39.4368C66.3899 39.4368 65.862 39.0687 65.862 38.5165C65.862 35.9395 73.781 32.4422 76.4206 31.3378C82.7558 28.7608 91.2027 25.9998 95.1621 27.6564C96.218 28.0245 96.7459 28.5767 96.7459 29.313C96.7459 30.2333 95.954 31.89 89.3549 34.8351C88.827 35.0191 88.827 35.2032 88.827 35.3873C88.827 35.5714 89.091 35.7554 89.6189 35.9395C91.2027 36.6758 94.1063 36.4917 95.4261 35.9395C104.137 31.89 105.457 29.313 105.457 28.2086C105.457 27.2883 104.401 26.3679 102.817 25.6316C99.6496 24.3431 90.1468 22.1343 70.8773 30.0493C62.9584 33.1785 57.943 37.0439 57.943 39.6209C57.943 40.5412 58.4709 41.2775 60.0547 41.8297C63.4863 43.1182 70.0854 43.1182 77.7404 41.6457C78.5323 41.4616 79.3242 41.8297 79.3242 42.3819C79.5882 42.9341 79.0603 43.4864 78.2684 43.4864C73.253 44.5908 69.2935 44.9589 66.1259 44.9589Z" fill="white"/>
</g>
</svg>
