<svg width="351" height="228" viewBox="0 0 351 228" fill="none" xmlns="http://www.w3.org/2000/svg">
<path opacity="0.4" d="M335.236 101.582L140.491 208.276C136.516 210.502 130.735 210.674 127.303 208.79L8.0711 143.54C4.63868 141.657 5.18064 138.403 8.97438 136.348L203.72 29.6535C207.694 27.4272 213.475 27.2559 216.907 29.1397L336.139 94.3892C339.572 96.273 339.21 99.527 335.236 101.582Z" fill="white"/>
<path opacity="0.2" d="M314.822 103.809L144.284 197.144C140.852 199.028 135.613 199.2 132.722 197.658L28.3044 140.458C25.4139 138.917 25.7752 136.005 29.2076 134.121L199.745 40.7855C203.178 38.9017 208.417 38.7304 211.307 40.2717L315.725 97.472C318.616 99.0134 318.254 101.925 314.822 103.809Z" fill="#041860"/>
<g filter="url(#filter0_d_51_742)">
<path d="M133.084 210.674C130.735 210.674 128.567 210.16 126.942 209.304L7.70981 144.054C6.08392 143.198 5 141.828 5 140.287C5 138.574 6.26458 136.861 8.61308 135.663L203.358 28.9686C207.513 26.7422 213.656 26.571 217.269 28.4548L336.5 93.7043C338.126 94.5606 339.21 95.9306 339.21 97.472C339.21 99.1845 337.946 100.897 335.597 102.096L140.852 208.79C138.503 209.989 135.794 210.674 133.084 210.674ZM211.307 28.4548C208.778 28.4548 206.249 28.9686 204.262 30.1674L9.3357 136.861C7.52915 137.889 6.44523 139.088 6.44523 140.458C6.44523 141.485 7.16785 142.342 8.43242 143.027L127.664 208.276C130.916 209.989 136.516 209.818 140.129 207.762L334.874 101.068C336.681 100.041 337.765 98.842 337.765 97.472C337.765 96.4444 337.042 95.5881 335.778 94.9031L216.546 29.6536C215.101 28.7973 213.294 28.4548 211.307 28.4548Z" fill="white"/>
</g>
<path d="M338.488 70.4134L336.32 71.9547C336.32 71.9547 336.32 71.9547 336.139 71.9547L216.907 6.70524C213.475 4.8214 207.513 5.16391 203.72 7.21901L8.97434 113.913C8.43238 114.084 8.07107 114.427 7.70976 114.769L5.72256 113.399V118.023C5.72256 119.222 6.44518 120.421 8.07107 121.277L127.303 186.527C130.735 188.41 136.697 188.068 140.491 186.013L335.236 79.3188C337.404 78.12 338.488 76.5787 338.488 75.2086V70.4134Z" fill="white"/>
<path d="M335.236 74.5233L140.491 181.217C136.516 183.444 130.735 183.615 127.303 181.731L7.89044 116.31C4.45801 114.427 4.99997 111.173 8.79371 109.118L203.539 2.42354C207.513 0.197181 213.294 0.0259237 216.727 1.90977L335.958 67.1592C339.572 69.2143 339.21 72.297 335.236 74.5233Z" fill="url(#paint0_linear_51_742)"/>
<path d="M181.499 53.4583L164.698 44.2103L168.853 41.9839C169.576 41.6414 170.299 41.2989 171.021 40.9564C171.744 40.7851 172.466 40.6139 173.189 40.4426C173.912 40.4426 174.815 40.4426 175.537 40.6139C176.26 40.7851 177.163 41.1277 177.886 41.4702C179.873 42.669 180.234 43.6965 178.97 44.7241C180.234 44.2103 181.318 44.0391 182.402 44.2103C183.486 44.3816 184.751 44.7241 186.015 45.4091C187.641 46.2654 188.364 47.1217 188.364 47.978C188.364 48.8343 187.641 49.6906 186.015 50.5469L181.499 53.4583ZM174.634 46.4367L175.537 45.9229C176.441 45.4091 176.802 45.0666 176.802 44.5528C176.802 44.2103 176.26 43.6965 175.357 43.1828C174.815 42.8402 174.454 42.669 174.092 42.669C173.731 42.4977 173.37 42.4977 172.828 42.669C172.466 42.669 172.105 42.8402 171.744 43.0115C171.382 43.1828 170.84 43.354 170.479 43.6965L170.118 43.8678L174.634 46.4367ZM182.402 50.7181L183.486 50.0331C184.39 49.5193 184.751 49.0055 184.751 48.663C184.751 48.3205 184.209 47.8067 183.125 47.293C182.041 46.7792 181.138 46.4367 180.415 46.4367C179.512 46.4367 178.609 46.6079 177.705 47.1217L176.802 47.6355L182.402 50.7181Z" fill="white"/>
<path d="M192.158 47.807L178.789 36.8465L182.041 35.1339L202.274 42.498L199.384 44.0394L194.868 42.3268L191.977 43.8681L195.229 46.437L192.158 47.807ZM190.17 42.3268L192.338 41.128L184.39 38.0453L190.17 42.3268Z" fill="white"/>
<path d="M203.72 41.2993L186.919 32.0513L189.087 30.8525L202.636 33.7639L193.061 28.6262L195.59 27.2561L212.391 36.5041L210.404 37.5316L196.313 34.2777L206.249 39.758L203.72 41.2993Z" fill="white"/>
<path d="M214.92 35.1337L198.119 25.8858L201.19 24.1732L208.417 28.1122L204.442 22.2894L207.333 20.748L211.668 26.5708L224.495 29.6535L221.424 31.3661L210.584 28.6259L211.126 29.4822L217.991 33.2499L214.92 35.1337Z" fill="white"/>
<path d="M163.434 142L126.038 162.379L121.703 159.982L159.098 139.602L163.434 142Z" fill="white"/>
<path d="M209.32 116.825L171.924 137.204L167.589 134.978L204.984 114.427L209.32 116.825Z" fill="white"/>
<path d="M255.206 91.6491L217.811 112.2L213.475 109.802L250.87 89.4227L255.206 91.6491Z" fill="white"/>
<path d="M301.092 66.6457L263.697 87.0254L259.361 84.6278L296.756 64.248L301.092 66.6457Z" fill="white"/>
<defs>
<filter id="filter0_d_51_742" x="0" y="27.1597" width="350.21" height="200.514" filterUnits="userSpaceOnUse" color-interpolation-filters="sRGB">
<feFlood flood-opacity="0" result="BackgroundImageFix"/>
<feColorMatrix in="SourceAlpha" type="matrix" values="0 0 0 0 0 0 0 0 0 0 0 0 0 0 0 0 0 0 127 0" result="hardAlpha"/>
<feOffset dx="3" dy="9"/>
<feGaussianBlur stdDeviation="4"/>
<feComposite in2="hardAlpha" operator="out"/>
<feColorMatrix type="matrix" values="0 0 0 0 0 0 0 0 0 0 0 0 0 0 0 0 0 0 0.25 0"/>
<feBlend mode="normal" in2="BackgroundImageFix" result="effect1_dropShadow_51_742"/>
<feBlend mode="normal" in="SourceGraphic" in2="effect1_dropShadow_51_742" result="shape"/>
</filter>
<linearGradient id="paint0_linear_51_742" x1="371.538" y1="4.35359" x2="156.958" y2="295.866" gradientUnits="userSpaceOnUse">
<stop stop-color="#59BDEF"/>
<stop offset="1" stop-color="#7BDAFF"/>
</linearGradient>
</defs>
</svg>
