<svg width="1510" height="228" viewBox="0 0 1510 228" fill="none" xmlns="http://www.w3.org/2000/svg">
<path opacity="0.05" fill-rule="evenodd" clip-rule="evenodd" d="M0 122.028L21.42 95.3678C41.58 68.707 84.42 15.3856 126 10.0534C167.58 4.72128 210.42 47.3785 252 58.0427C293.58 68.707 336.42 47.3785 378 52.7106C419.58 58.0427 462.42 90.0356 504 111.364C545.58 132.693 588.42 143.357 630 132.693C671.58 122.028 714.42 90.0356 756 90.0356C797.58 90.0356 840.42 122.028 882 116.696C923.58 111.364 966.42 68.707 1008 68.707C1049.58 68.707 1092.42 111.364 1134 106.032C1175.58 100.7 1218.42 47.3785 1260 20.7177C1301.58 -5.943 1344.42 -5.94301 1386 15.3856C1427.58 36.7142 1470.42 79.3713 1490.58 100.7L1512 122.028V250H1490.58C1470.42 250 1427.58 250 1386 250C1344.42 250 1301.58 250 1260 250C1218.42 250 1175.58 250 1134 250C1092.42 250 1049.58 250 1008 250C966.42 250 923.58 250 882 250C840.42 250 797.58 250 756 250C714.42 250 671.58 250 630 250C588.42 250 545.58 250 504 250C462.42 250 419.58 250 378 250C336.42 250 293.58 250 252 250C210.42 250 167.58 250 126 250C84.42 250 41.58 250 21.42 250H0V122.028Z" fill="white"/>
</svg>
