<svg width="311" height="249" viewBox="0 0 311 249" fill="none" xmlns="http://www.w3.org/2000/svg">
<path opacity="0.5" d="M307.574 198.157L216.265 247.18C212.181 249.386 205.988 249.631 202.431 247.67L2.42101 140.31C-1.13648 138.472 -0.609441 135.163 3.47508 132.957L94.7839 83.9336C98.8684 81.7276 105.061 81.4825 108.619 83.4434L308.628 190.926C312.054 192.642 311.659 196.074 307.574 198.157Z" fill="#13247A"/>
<path d="M310.868 167.395L292.027 164.331L108.487 65.7951C104.929 63.9568 98.7367 64.0793 94.6522 66.2854L9.66782 111.999L0.0494385 110.406V119.475C0.0494385 120.701 0.839991 121.804 2.4211 122.662L202.431 230.145C205.988 231.983 212.181 231.86 216.266 229.654L307.574 180.631C309.814 179.406 311 177.813 311 176.342V167.395H310.868Z" fill="url(#paint0_linear_51_656)"/>
<path d="M307.574 171.562L216.265 220.585C212.181 222.791 205.988 223.036 202.431 221.075L2.42101 113.715C-1.13648 111.877 -0.609441 108.568 3.47508 106.362L94.7839 57.3387C98.8684 55.1327 105.061 54.8876 108.619 56.8485L308.628 164.331C312.054 166.047 311.659 169.356 307.574 171.562Z" fill="url(#paint1_linear_51_656)"/>
<path d="M307.574 170.459L216.265 219.482C212.181 221.688 205.988 221.933 202.431 219.972L2.42107 112.612C1.10348 111.877 0.312927 111.019 0.0494095 110.038C-0.214108 111.387 0.576444 112.857 2.42107 113.838L202.431 221.321C205.988 223.159 212.181 223.036 216.265 220.83L307.574 171.807C310.078 170.459 311.263 168.621 310.868 167.028C310.605 168.131 309.551 169.356 307.574 170.459Z" fill="white"/>
<path d="M307.706 163.719L201.64 220.708L3.34338 114.205L109.277 57.2162L307.706 163.719Z" fill="#0F65B2"/>
<path d="M62.7665 79.5216L48.6684 87.1202C48.0096 87.4878 47.0873 87.4878 46.5602 87.2427L46.4285 87.1202C45.9014 86.875 45.9014 86.3848 46.5602 86.0171L60.6584 78.4186C61.3172 78.0509 62.2395 78.0509 62.7665 78.296L62.8983 78.4186C63.4253 78.6637 63.2936 79.1539 62.7665 79.5216Z" fill="#0063AD"/>
<path d="M29.1681 115.063L27.3235 116.044L23.1072 113.838L24.9519 112.857L29.1681 115.063Z" fill="white"/>
<path d="M32.3303 113.347L30.6175 114.328L26.4012 111.999L28.2458 111.141L32.3303 113.347Z" fill="white"/>
<path d="M35.6243 111.632L33.9115 112.489L29.6952 110.283L31.4081 109.303L35.6243 111.632Z" fill="white"/>
<path d="M38.9183 109.793L37.2054 110.774L32.9891 108.568L34.702 107.587L38.9183 109.793Z" fill="white"/>
<path opacity="0.6" d="M134.048 145.09C153.623 145.09 169.491 136.585 169.491 126.093C169.491 115.602 153.623 107.097 134.048 107.097C114.473 107.097 98.6049 115.602 98.6049 126.093C98.6049 136.585 114.473 145.09 134.048 145.09Z" fill="#041860"/>
<path d="M134.048 155.875C119.95 155.875 105.852 152.933 95.1792 147.173C84.6385 141.536 78.9728 134.06 78.9728 125.971C78.9728 118.005 84.7702 110.406 95.1792 104.768C116.656 93.248 151.572 93.248 173.049 104.768C183.589 110.406 189.255 117.882 189.255 125.971C189.255 133.937 183.457 141.536 173.049 147.173C162.244 153.056 148.146 155.875 134.048 155.875ZM134.048 97.1698C120.082 97.1698 106.247 99.9886 95.5744 105.749C85.429 111.264 79.7634 118.495 79.7634 126.093C79.7634 133.814 85.429 141.045 95.5744 146.438C116.788 157.836 151.308 157.836 172.39 146.438C182.535 140.923 188.201 133.692 188.201 126.093C188.201 118.372 182.535 111.141 172.39 105.749C161.981 100.111 148.014 97.1698 134.048 97.1698Z" fill="white"/>
<path d="M97.3103 4.59851L95.5401 2.95197L93.7699 4.59851L95.5401 6.24506L97.3103 4.59851Z" fill="white"/>
<path d="M103.624 4.5913L101.854 2.94476L100.084 4.59131L101.854 6.23785L103.624 4.5913Z" fill="white"/>
<path d="M100.468 1.64655L98.6974 0L96.9272 1.64655L98.6974 3.2931L100.468 1.64655Z" fill="white"/>
<path d="M100.467 7.54346L98.6966 5.89691L96.9264 7.54346L98.6966 9.19L100.467 7.54346Z" fill="white"/>
<path d="M208.623 190.314C208.228 190.314 207.965 190.068 207.965 189.701C207.965 189.333 208.228 189.088 208.623 188.965C219.032 188.23 229.573 185.289 238.137 180.632C247.361 175.607 253.026 170.704 254.607 165.925C254.739 165.557 255.134 165.434 255.53 165.557C255.925 165.68 256.057 166.047 255.925 166.415C254.08 171.562 248.415 176.71 238.796 181.857C229.968 186.514 219.296 189.578 208.623 190.314Z" fill="white"/>
<path d="M255.661 163.351C255.266 163.351 255.003 163.106 255.003 162.738C254.871 158.939 251.84 155.385 246.306 152.321C234.185 145.825 218.242 145.825 201.64 152.443C201.245 152.566 200.85 152.443 200.718 152.076C200.586 151.708 200.718 151.34 201.113 151.218C218.242 144.477 234.448 144.477 247.097 151.218C253.026 154.404 256.32 158.326 256.452 162.616C256.32 163.106 256.057 163.351 255.661 163.351Z" fill="white"/>
<path d="M197.951 190.314C192.022 189.823 186.883 188.475 183.062 186.392C178.714 184.063 176.079 180.999 175.288 177.323C175.157 176.832 175.288 176.342 175.684 175.852C176.343 175.117 177.66 174.749 179.109 174.749C180.691 174.871 182.008 175.484 182.272 176.465C183.062 178.916 185.039 181.122 188.069 182.715C198.873 188.475 219.691 186.759 234.448 178.793C243.935 173.646 249.073 168.498 249.073 163.719C249.073 160.41 246.57 157.223 241.695 154.649C229.178 147.909 212.313 149.379 195.316 158.571C189.123 161.88 184.775 165.925 182.93 169.969C182.535 170.827 181.349 171.317 179.9 171.44C178.451 171.44 177.265 170.95 176.738 170.214C176.474 169.724 176.343 169.234 176.606 168.744C179.109 163.964 184.116 159.552 191.231 155.752C191.627 155.63 192.022 155.63 192.154 155.998C192.285 156.365 192.285 156.733 191.89 156.855C185.039 160.532 180.164 164.822 177.792 169.356C177.792 169.479 177.792 169.479 177.792 169.601C178.055 169.969 178.714 170.214 179.768 170.214C180.822 170.214 181.349 169.847 181.481 169.601C183.458 165.312 188.069 161.022 194.525 157.591C212.049 148.154 229.441 146.806 242.354 153.669C247.624 156.488 250.391 160.042 250.391 163.841C250.391 169.111 245.252 174.626 235.107 180.019C219.955 188.108 198.478 189.946 187.279 183.941C183.853 182.102 181.613 179.651 180.822 176.955C180.691 176.587 179.9 176.22 178.846 176.22C177.792 176.22 176.87 176.465 176.606 176.832C176.474 176.955 176.474 177.077 176.474 177.2C177.133 180.386 179.637 183.205 183.589 185.289C187.279 187.25 192.154 188.598 197.819 189.088C198.215 189.088 198.478 189.456 198.478 189.823C198.61 190.069 198.346 190.314 197.951 190.314Z" fill="white"/>
<path d="M215.475 183.695C214.421 183.695 213.235 183.328 212.708 182.715C212.313 182.225 212.181 181.734 212.313 181.244C212.576 180.509 213.367 180.019 214.421 179.774C219.164 178.916 223.644 177.322 227.597 175.239C234.053 171.807 237.61 168.376 238.137 165.312C238.401 163.841 237.742 162.37 236.424 161.022C235.897 160.532 235.766 160.042 235.897 159.552C236.029 158.816 236.688 158.326 237.742 157.958C239.455 157.346 241.563 157.713 242.485 158.694C244.33 160.532 245.252 162.616 245.121 164.822C244.857 168.008 242.354 171.317 237.742 174.626C237.479 174.871 236.952 174.749 236.82 174.504C236.556 174.258 236.688 173.768 236.952 173.646C241.3 170.582 243.539 167.64 243.803 164.822C243.935 162.983 243.276 161.267 241.563 159.674C241.036 159.184 239.455 158.816 238.269 159.306C237.61 159.552 237.347 159.797 237.347 159.919C237.347 159.919 237.347 160.042 237.479 160.287C239.191 161.88 239.85 163.719 239.587 165.557C239.06 169.111 235.239 172.788 228.387 176.464C224.303 178.671 219.691 180.264 214.816 181.122C214.157 181.244 213.762 181.489 213.762 181.734C213.762 181.734 213.762 181.857 213.894 181.98C214.289 182.347 215.343 182.592 216.397 182.47C221.799 181.367 226.938 179.528 231.286 177.2C231.681 177.077 232.076 177.077 232.208 177.445C232.34 177.813 232.34 178.18 231.945 178.303C227.465 180.754 222.063 182.592 216.661 183.695C216.134 183.695 215.738 183.695 215.475 183.695Z" fill="white"/>
<path d="M204.539 184.676H204.407C199.269 184.553 194.92 183.573 191.758 181.857C188.069 179.896 186.224 177.2 186.224 174.013C186.224 169.111 190.836 163.719 198.478 159.552C210.732 153.056 222.853 150.85 232.867 153.669C233.921 153.914 234.712 154.527 234.843 155.262C234.975 155.752 234.843 156.365 234.448 156.855C233.526 157.836 231.549 158.203 229.837 157.713C222.722 155.752 213.762 157.1 204.671 161.635C204.275 161.758 204.144 162.003 204.144 162.125C204.144 162.248 204.275 162.37 204.539 162.493C205.329 162.861 206.647 162.861 207.438 162.493C216.529 157.958 225.093 157.223 230.759 160.287C232.999 161.513 234.316 163.106 234.316 164.944C234.316 167.885 231.154 171.195 224.961 174.504C216.397 179.038 205.198 180.509 199.927 177.69C198.214 176.832 197.292 175.607 197.029 174.013C196.765 172.052 197.687 169.846 199.927 167.64C200.059 167.518 200.059 167.395 200.059 167.395C200.059 167.273 199.796 167.028 199.4 166.905C198.346 166.537 196.897 166.782 196.502 167.273C194.13 169.724 192.944 172.175 193.339 174.381C193.603 176.097 194.789 177.568 196.897 178.671C199.005 179.774 201.904 180.509 205.198 180.631C206.911 180.754 208.228 181.489 208.36 182.592C208.36 183.083 208.228 183.45 207.833 183.818C206.647 184.308 205.593 184.676 204.539 184.676ZM223.644 153.669C216.002 153.669 207.569 155.997 199.005 160.532C191.758 164.454 187.41 169.356 187.41 173.768C187.41 176.465 189.123 178.793 192.285 180.509C195.316 182.102 199.4 183.083 204.275 183.205C205.198 183.205 205.856 182.96 206.12 182.715C206.252 182.592 206.252 182.592 206.252 182.47C206.252 182.102 205.593 181.734 204.407 181.612C200.85 181.367 197.819 180.631 195.448 179.406C193.076 178.058 191.627 176.342 191.231 174.258C190.836 171.685 192.022 168.866 194.789 166.17C195.711 165.189 197.819 164.944 199.269 165.557C200.059 165.925 200.586 166.415 200.718 166.905C200.85 167.395 200.718 167.885 200.323 168.253C198.478 170.092 197.556 172.052 197.819 173.523C197.951 174.626 198.742 175.484 200.059 176.219C204.934 178.916 215.607 177.445 223.776 173.033C229.441 169.969 232.472 167.028 232.472 164.576C232.472 163.228 231.549 162.003 229.705 161.022C224.434 158.203 216.397 159.061 207.701 163.351C206.515 163.964 204.671 163.964 203.485 163.351C202.826 162.983 202.431 162.37 202.431 161.758C202.431 161.145 202.826 160.532 203.617 160.164C213.103 155.507 222.458 154.037 229.837 156.12C231.154 156.488 232.472 156.12 232.999 155.63C233.131 155.385 233.131 155.385 233.131 155.262C232.999 155.017 232.735 154.772 232.076 154.527C229.573 154.037 226.674 153.669 223.644 153.669Z" fill="white"/>
<path d="M207.833 176.097C206.12 176.097 204.802 175.852 203.748 175.239C202.694 174.626 202.035 173.768 202.035 172.665C202.035 170.337 204.671 167.518 209.15 165.189C216.397 161.267 222.722 160.287 226.543 162.248C228.124 163.106 228.519 164.209 228.519 164.944C228.519 166.782 226.674 168.988 222.985 171.195C221.799 171.93 219.823 171.93 218.637 171.317C217.978 170.949 217.583 170.459 217.583 169.846C217.583 169.234 217.847 168.743 218.505 168.376C221.536 166.537 221.536 165.802 221.536 165.802C220.745 165.312 218.11 165.679 213.498 168.253C210.336 169.969 209.019 171.44 209.019 171.807C209.019 172.175 208.755 172.42 208.36 172.42C207.965 172.42 207.701 172.175 207.701 171.807C207.701 170.092 211.654 167.763 212.971 167.028C216.134 165.312 220.35 163.473 222.326 164.576C222.853 164.822 223.117 165.189 223.117 165.679C223.117 166.292 222.722 167.395 219.428 169.356C219.164 169.479 219.164 169.601 219.164 169.724C219.164 169.846 219.296 169.969 219.559 170.092C220.35 170.582 221.799 170.459 222.458 170.092C226.806 167.395 227.465 165.679 227.465 164.944C227.465 164.331 226.938 163.719 226.147 163.228C224.566 162.37 219.823 160.9 210.205 166.17C206.252 168.253 203.748 170.827 203.748 172.543C203.748 173.155 204.012 173.646 204.802 174.013C206.515 174.871 209.809 174.871 213.63 173.891C214.026 173.768 214.421 174.013 214.421 174.381C214.553 174.749 214.289 175.116 213.894 175.116C211.39 175.852 209.414 176.097 207.833 176.097Z" fill="white"/>
<path d="M196.37 154.037C196.238 154.037 196.238 154.037 196.106 154.037L177.924 144.232C177.66 144.109 177.66 143.864 177.792 143.619C177.924 143.374 178.187 143.374 178.451 143.497L196.633 153.301C196.897 153.424 196.897 153.669 196.765 153.914C196.633 153.914 196.502 154.037 196.37 154.037Z" fill="white"/>
<defs>
<linearGradient id="paint0_linear_51_656" x1="21.156" y1="82.1173" x2="276.246" y2="226.616" gradientUnits="userSpaceOnUse">
<stop stop-color="#3A9BD5"/>
<stop offset="0.3053" stop-color="#3A9BD5"/>
<stop offset="0.3555" stop-color="#3A9BD5"/>
<stop offset="0.5988" stop-color="#3999D4"/>
<stop offset="0.6883" stop-color="#3592CF"/>
<stop offset="0.7522" stop-color="#2F86C7"/>
<stop offset="0.8039" stop-color="#2676BC"/>
<stop offset="0.8102" stop-color="#2573BA"/>
</linearGradient>
<linearGradient id="paint1_linear_51_656" x1="28.3772" y1="164.453" x2="257.331" y2="60.669" gradientUnits="userSpaceOnUse">
<stop stop-color="#59BDEF"/>
<stop offset="1" stop-color="#7BDAFF"/>
</linearGradient>
</defs>
</svg>
